<svg id="svg" version="1.1" xmlns="http://www.w3.org/2000/svg" xmlns:xlink="http://www.w3.org/1999/xlink" width="400" height="200" viewBox="0, 0, 400,200"><g id="svgg"><path id="path0" d="M0.000 33.300 L 0.000 66.600 200.000 66.600 L 400.000 66.600 400.000 33.300 L 400.000 0.000 200.000 0.000 L 0.000 0.000 0.000 33.300 " stroke="none" fill="#cc2434" fill-rule="evenodd"></path><path id="path1" d="M0.000 100.000 L 0.000 133.200 200.000 133.200 L 400.000 133.200 400.000 100.000 L 400.000 66.800 200.000 66.800 L 0.000 66.800 0.000 100.000 " stroke="none" fill="#fcfcfc" fill-rule="evenodd"></path><path id="path2" d="M99.950 66.750 C 154.978 66.778,245.023 66.778,300.050 66.750 C 355.078 66.722,310.055 66.700,200.000 66.700 C 89.945 66.700,44.923 66.722,99.950 66.750 " stroke="none" fill="#ecbcbc" fill-rule="evenodd"></path><path id="path3" d="M0.000 166.700 L 0.000 200.000 200.000 200.000 L 400.000 200.000 400.000 166.700 L 400.000 133.400 200.000 133.400 L 0.000 133.400 0.000 166.700 " stroke="none" fill="#44744c" fill-rule="evenodd"></path><path id="path4" d="M99.950 133.350 C 154.978 133.378,245.023 133.378,300.050 133.350 C 355.078 133.322,310.055 133.300,200.000 133.300 C 89.945 133.300,44.923 133.322,99.950 133.350 " stroke="none" fill="#c4d4c4" fill-rule="evenodd"></path></g></svg>